<svg enable-background="new 0 0 256 256" height="512" viewBox="0 0 256 256" width="512" xmlns="http://www.w3.org/2000/svg"><path d="m221.678 136.688c-30.43 17.569-69.341 7.143-86.91-23.287-7.617-13.194-9.964-27.98-7.708-41.931h-116.16c-4.62 0-8.4 3.78-8.4 8.4v118.847c0 4.62 3.78 8.4 8.4 8.4h220.2c4.62 0 8.4-3.78 8.4-8.4v-77.325c-4.805 5.994-10.768 11.223-17.822 15.296z" fill="#edf4fc"/><circle cx="56.335" cy="138.118" fill="#fcdd86" r="38.017"/><circle cx="56.335" cy="138.118" fill="#f5c84c" r="28.533"/><circle cx="189.867" cy="81.589" fill="#fcdd86" r="63.623"/><circle cx="189.867" cy="81.589" fill="#f5c84c" r="54.324"/><path d="m142.821 108.751c4.207 7.287 9.849 13.23 16.361 17.679l84.861-48.994c-.597-7.865-2.923-15.722-7.13-23.009s-9.849-13.23-16.361-17.679l-84.861 48.994c.597 7.865 2.922 15.722 7.13 23.009z" fill="#fc657e"/><path d="m117.075 28.545h-2.07v-2.07c0-1.549-1.256-2.805-2.805-2.805s-2.805 1.256-2.805 2.805v2.07h-2.069c-1.549 0-2.805 1.256-2.805 2.805s1.256 2.805 2.805 2.805h2.069v2.07c0 1.549 1.256 2.805 2.805 2.805s2.805-1.256 2.805-2.805v-2.07h2.07c1.549 0 2.805-1.256 2.805-2.805s-1.256-2.805-2.805-2.805z" fill="#f5c84c"/><path d="m192.897 223.224c-1.361-.257-2.255-1.475-2.255-2.749 0-1.529 1.233-2.805 2.805-2.805 1.528 0 2.805 1.252 2.805 2.805 0 1.687-1.52 3.091-3.355 2.749z" fill="#ef4460"/><path d="m87.506 58.224c1.854.335 3.355-1.052 3.355-2.749 0-1.28-.901-2.493-2.255-2.749-1.864-.347-3.354 1.093-3.354 2.749 0 1.352.978 2.508 2.254 2.749z" fill="#ef4460"/><path d="m174.56 228.384c-3.995.744-7.144 3.829-7.904 7.743-.038.197-.313.197-.351 0-.76-3.914-3.908-6.999-7.904-7.743-.201-.037-.201-.306 0-.344 3.995-.744 7.144-3.829 7.904-7.743.038-.197.312-.197.351 0 .76 3.914 3.908 6.999 7.904 7.743.201.038.201.307 0 .344z" fill="#3caadc"/><path d="m115.897 223.224c-1.358-.257-2.255-1.473-2.255-2.749 0-1.479 1.184-2.805 2.805-2.805 1.497 0 2.805 1.214 2.805 2.805 0 1.677-1.505 3.094-3.355 2.749z" fill="#87d147"/><path d="m146.825 184.85c-3.684 0-5.461-2.708-6.759-4.685-1.215-1.853-1.73-2.429-2.579-2.429s-1.363.576-2.579 2.429c-1.297 1.977-3.075 4.685-6.758 4.685s-5.459-2.708-6.756-4.686c-1.214-1.852-1.728-2.428-2.575-2.428-.848 0-1.362.576-2.577 2.428-1.297 1.978-3.074 4.686-6.757 4.686-1.381 0-2.5-1.119-2.5-2.5s1.119-2.5 2.5-2.5c.848 0 1.362-.576 2.577-2.428 1.297-1.978 3.074-4.686 6.757-4.686s5.459 2.708 6.756 4.686c1.214 1.852 1.728 2.428 2.576 2.428.849 0 1.363-.576 2.579-2.429 1.297-1.977 3.075-4.685 6.759-4.685s5.461 2.708 6.758 4.685c1.216 1.853 1.73 2.429 2.579 2.429 1.381 0 2.5 1.119 2.5 2.5s-1.12 2.5-2.501 2.5z"/><path d="m118.5 103.509h-9.765c-1.381 0-2.5-1.119-2.5-2.5s1.119-2.5 2.5-2.5h9.765c1.381 0 2.5 1.119 2.5 2.5s-1.119 2.5-2.5 2.5z"/><path d="m122.25 117.9h-13.515c-1.381 0-2.5-1.119-2.5-2.5s1.119-2.5 2.5-2.5h13.515c1.381 0 2.5 1.119 2.5 2.5s-1.119 2.5-2.5 2.5z"/><path d="m148.5 146.686h-39.764c-1.381 0-2.5-1.119-2.5-2.5s1.119-2.5 2.5-2.5h39.764c1.381 0 2.5 1.119 2.5 2.5s-1.12 2.5-2.5 2.5z"/><path d="m205.5 161.077h-96.765c-1.381 0-2.5-1.119-2.5-2.5s1.119-2.5 2.5-2.5h96.765c1.381 0 2.5 1.119 2.5 2.5s-1.119 2.5-2.5 2.5z"/><path d="m131.5 132.293h-22.765c-1.381 0-2.5-1.119-2.5-2.5s1.119-2.5 2.5-2.5h22.765c1.381 0 2.5 1.119 2.5 2.5s-1.119 2.5-2.5 2.5z"/><path d="m59.961 153.714h-10.278c-1.381 0-2.5-1.119-2.5-2.5s1.119-2.5 2.5-2.5h10.278c2.232 0 4.048-1.815 4.048-4.048s-1.816-4.048-4.048-4.048h-7.252c-4.989 0-9.047-4.059-9.047-9.048s4.059-9.048 9.047-9.048h11.599c1.381 0 2.5 1.119 2.5 2.5s-1.119 2.5-2.5 2.5h-11.6c-2.232 0-4.047 1.815-4.047 4.048s1.815 4.048 4.047 4.048h7.252c4.989 0 9.048 4.059 9.048 9.048s-4.058 9.048-9.047 9.048z"/><path d="m56.335 158.193c-1.381 0-2.5-1.119-2.5-2.5v-35.15c0-1.381 1.119-2.5 2.5-2.5s2.5 1.119 2.5 2.5v35.15c0 1.381-1.119 2.5-2.5 2.5z"/><path d="m56.335 178.636c-22.341 0-40.518-18.176-40.518-40.518s18.176-40.518 40.518-40.518 40.518 18.176 40.518 40.518-18.177 40.518-40.518 40.518zm0-76.035c-19.584 0-35.518 15.934-35.518 35.518s15.933 35.518 35.518 35.518 35.518-15.934 35.518-35.518-15.934-35.518-35.518-35.518z"/><path d="m231.1 209.616h-220.2c-6.01 0-10.9-4.89-10.9-10.899v-118.848c0-6.01 4.89-10.899 10.9-10.899h116.16c.733 0 1.429.321 1.904.88.475.558.681 1.296.564 2.02-2.237 13.83.393 28.136 7.405 40.281 8.163 14.14 21.344 24.253 37.114 28.479 15.769 4.228 32.242 2.057 46.381-6.106 6.599-3.81 12.359-8.754 17.121-14.695.664-.827 1.779-1.147 2.779-.795 1.001.352 1.671 1.297 1.671 2.358v77.326c.001 6.009-4.889 10.898-10.899 10.898zm-220.2-135.646c-3.253 0-5.9 2.646-5.9 5.899v118.848c0 3.253 2.646 5.899 5.9 5.899h220.2c3.253 0 5.9-2.646 5.9-5.899v-70.749c-4.166 4.239-8.879 7.887-14.072 10.885-15.296 8.83-33.117 11.176-50.175 6.606-17.06-4.571-31.319-15.513-40.15-30.809-7.097-12.292-10.044-26.631-8.414-40.681h-113.289z"/><path d="m158.658 87.233-9.451 5.457c-.468.27-.629.869-.358 1.337l9.642 16.7c.271.469.869.629 1.337.358l2.156-1.245c.468-.27.629-.869.358-1.337l-3.833-6.638 5.335-3.08c.468-.27.629-.869.358-1.337l-.972-1.683c-.271-.469-.869-.629-1.337-.358l-5.335 3.08-2.358-4.084 6.448-3.723c.468-.27.629-.869.358-1.337l-1.012-1.752c-.269-.468-.868-.628-1.336-.358z"/><path d="m183.084 95.906-7.257-3.632c2.003-2.156 2.381-4.863.778-7.641-1.942-3.363-5.521-4.574-9.894-2.049l-5.495 3.173c-.468.27-.629.869-.358 1.337l9.642 16.7c.271.469.869.629 1.337.358l2.156-1.245c.468-.27.629-.869.358-1.337l-3.45-5.975 1.033-.596 7.821 4.059c.297.154.651.146.94-.021l2.44-1.409c.312-.18.5-.517.489-.877-.01-.359-.218-.684-.54-.845zm-16.806-8.317 2.303-1.33c2.488-1.437 3.517-.43 4.195.744s1.035 2.568-1.453 4.005l-2.303 1.33z"/><path d="m200.28 85.78-15.623-12.837c-.315-.259-.758-.295-1.111-.092l-2.44 1.408c-.353.204-.542.604-.476 1.007l3.281 19.962c.052.317.256.588.547.725.29.138.63.124.908-.037l2.322-1.34c.357-.206.546-.614.475-1.019l-.712-3.993 6.154-3.553 3.101 2.612c.316.266.763.305 1.12.099l2.321-1.34c.278-.161.46-.447.486-.767.027-.318-.105-.631-.353-.835zm-14.645-6.465 4.789 4.029-3.694 2.133z"/><path d="m203.023 61.619-2.155 1.244c-.468.27-.629.869-.358 1.337l5.784 10.019c1.378 2.387 1.468 4.434-.892 5.797-2.411 1.392-4.145.327-5.538-2.084l-5.784-10.019c-.271-.469-.869-.629-1.337-.358l-2.155 1.244c-.468.27-.629.869-.358 1.337l5.784 10.019c2.979 5.16 7.408 5.982 11.497 3.622 4.113-2.375 5.617-6.615 2.635-11.78l-5.784-10.019c-.272-.469-.87-.629-1.339-.359z"/><path d="m211.669 56.628-5.305 3.063c-.469.271-.629.869-.358 1.337l9.642 16.7c.271.469.869.629 1.337.358l5.305-3.063c1.976-1.141 3.487-2.519 4.491-4.096 1.024-1.607 1.518-3.355 1.468-5.195 0-.001 0-.001 0-.001-.05-1.804-.611-3.644-1.663-5.468-3.224-5.581-8.785-7.175-14.917-3.635zm11.017 5.886c2.091 3.622 1.221 6.723-2.663 8.966l-2.137 1.234-6.447-11.166 2.137-1.234c3.955-2.284 7.04-1.387 9.11 2.2z"/><path d="m189.978 147.699c-22.871 0-45.142-11.859-57.375-33.049-18.23-31.575-7.373-72.095 24.202-90.325 31.577-18.229 72.097-7.371 90.325 24.203 8.831 15.295 11.177 33.114 6.606 50.175s-15.512 31.319-30.808 40.15c-10.386 5.997-21.74 8.846-32.95 8.846zm-.214-127.22c-10.364 0-20.856 2.633-30.458 8.177-29.188 16.852-39.224 54.308-22.372 83.495 11.308 19.586 31.897 30.548 53.037 30.55 10.364.001 20.856-2.633 30.458-8.177 14.139-8.163 24.253-21.345 28.479-37.114 4.226-15.771 2.057-32.242-6.106-46.381-11.309-19.587-31.899-30.55-53.038-30.55z"/><path d="m189.958 138.438c-4.936 0-9.903-.648-14.799-1.96-14.661-3.929-26.915-13.331-34.504-26.477-15.666-27.135-6.336-61.956 20.799-77.623 13.145-7.588 28.458-9.604 43.119-5.677 14.661 3.929 26.915 13.332 34.504 26.477 15.666 27.135 6.336 61.956-20.799 77.622-8.755 5.055-18.473 7.638-28.32 7.638zm-.176-108.695c-8.98 0-17.842 2.354-25.828 6.965-24.747 14.289-33.256 46.046-18.969 70.793 6.921 11.988 18.097 20.563 31.468 24.146 13.371 3.584 27.338 1.743 39.325-5.178 24.747-14.288 33.256-46.045 18.969-70.792-6.921-11.988-18.097-20.563-31.468-24.146-4.463-1.196-8.996-1.788-13.497-1.788z"/><path d="m159.182 128.931c-.494 0-.986-.146-1.411-.436-7.057-4.822-12.815-11.045-17.116-18.494-4.302-7.45-6.811-15.548-7.458-24.069-.073-.959.41-1.874 1.243-2.354l84.86-48.994c.833-.479 1.868-.44 2.66.101 7.056 4.82 12.814 11.043 17.116 18.494 4.301 7.449 6.811 15.548 7.458 24.069.073.959-.41 1.874-1.243 2.354l-84.861 48.994c-.386.223-.817.335-1.248.335zm-20.857-41.823c.762 7.199 3 14.052 6.661 20.393 3.66 6.34 8.477 11.705 14.331 15.966l82.092-47.396c-.763-7.199-3-14.052-6.661-20.393-3.662-6.342-8.478-11.707-14.331-15.966z"/><path d="m56.335 169.15c-17.111 0-31.033-13.921-31.033-31.032s13.921-31.032 31.033-31.032 31.033 13.921 31.033 31.032-13.922 31.032-31.033 31.032zm0-57.064c-14.354 0-26.033 11.678-26.033 26.032s11.678 26.032 26.033 26.032 26.033-11.678 26.033-26.032-11.679-26.032-26.033-26.032z"/></svg>