<svg height="512" viewBox="0 0 512 512" width="512" xmlns="http://www.w3.org/2000/svg"><g id="Filledotuline"><path d="m352 432h48v64h-48z" fill="#f8caa8"/><path d="m112 432h48v64h-48z" fill="#f8caa8"/><path d="m338.54 297.03a80.012 80.012 0 0 1 66.95 73.06l5.77 77.91h-59.26v48h-192v-48h-59.26l5.77-77.91a80.012 80.012 0 0 1 66.95-73.06z" fill="#0093b9"/><path d="m312 310.04-28.17 33.18-27.83 32.78-27.83-32.78-28.17-33.18z" fill="#f8caa8"/><path d="m312 310.04-28.17 33.18a103.142 103.142 0 0 1 -12.71.78h-30.24a103.142 103.142 0 0 1 -12.71-.78l-28.17-33.18z" fill="#e99180"/><path d="m200 310.036v57.964l56 8z" fill="#5db9d2"/><path d="m312 310.036v57.964l-56 8z" fill="#5db9d2"/><path d="m352 192h16a24 24 0 0 1 24 24 24 24 0 0 1 -24 24h-16a0 0 0 0 1 0 0v-48a0 0 0 0 1 0 0z" fill="#e99180"/><path d="m120 192h16a24 24 0 0 1 24 24 24 24 0 0 1 -24 24h-16a0 0 0 0 1 0 0v-48a0 0 0 0 1 0 0z" fill="#e99180" transform="matrix(-1 0 0 -1 280 432)"/><path d="m360 144v95.122a88.876 88.876 0 0 1 -21.4 57.841 88.878 88.878 0 0 1 -67.478 31.037h-30.244a88.878 88.878 0 0 1 -67.478-31.037 88.876 88.876 0 0 1 -21.4-57.841v-95.122z" fill="#f8caa8"/><path d="m336 67.6a87.7 87.7 0 0 1 24 60.4v8h-208v-8a87.7 87.7 0 0 1 24-60.4l29.3-20.495a87.716 87.716 0 0 1 34.7-7.105h32a87.73 87.73 0 0 1 34.254 6.915z" fill="#f7aa23"/><g fill="#fbbe1f"><path d="m136 128h240v32h-240z"/><path d="m256 24a16 16 0 0 1 16 16v40a0 0 0 0 1 0 0h-32a0 0 0 0 1 0 0v-40a16 16 0 0 1 16-16z"/><path d="m192 40a16 16 0 0 1 16 16v40a0 0 0 0 1 0 0h-32a0 0 0 0 1 0 0v-40a16 16 0 0 1 16-16z"/><path d="m320 40a16 16 0 0 1 16 16v40a0 0 0 0 1 0 0h-32a0 0 0 0 1 0 0v-40a16 16 0 0 1 16-16z"/></g><path d="m152 160h208v16h-208z" fill="#e99180"/><path d="m312 192h-40a16.019 16.019 0 0 0 -16 16v32h-8a8 8 0 0 0 0 16h8a16.019 16.019 0 0 0 16-16v-32h40a8 8 0 0 0 0-16z"/><path d="m232 192h-32a8 8 0 0 0 0 16h32a8 8 0 0 0 0-16z"/><path d="m264 288h-16a8 8 0 0 0 0 16h16a8 8 0 0 0 0-16z"/><circle cx="216" cy="224" r="8"/><circle cx="296" cy="224" r="8"/><path d="m419.238 447.409-5.77-77.912a87.639 87.639 0 0 0 -61.232-77.419 96.964 96.964 0 0 0 15.35-44.078h.414a32 32 0 0 0 0-64v-16h8a8 8 0 0 0 8-8v-32a8 8 0 0 0 -8-8h-8.35a95.488 95.488 0 0 0 -23.65-55.467v-8.533a23.983 23.983 0 0 0 -39.458-18.339 95.1 95.1 0 0 0 -25.842-5.427 23.992 23.992 0 0 0 -45.406 0 95.074 95.074 0 0 0 -25.837 5.429 23.982 23.982 0 0 0 -39.457 18.337v8.534a95.482 95.482 0 0 0 -23.65 55.466h-8.35a8 8 0 0 0 -8 8v32a8 8 0 0 0 8 8h8v16a32 32 0 0 0 0 64h.414a96.96 96.96 0 0 0 15.35 44.078 87.64 87.64 0 0 0 -61.232 77.422l-5.77 77.91a8 8 0 0 0 7.978 8.59h3.26v40h16v-40h32v40h16v-96h-16v40h-42.646l5.134-69.317a71.7 71.7 0 0 1 56.062-64.94 96.794 96.794 0 0 0 21.45 17.025v45.232a8 8 0 0 0 6.869 7.919l49.131 7.019v113.062h16v-113.062l49.131-7.019a8 8 0 0 0 6.869-7.919v-45.231a96.828 96.828 0 0 0 21.45-17.026 71.7 71.7 0 0 1 56.062 64.938l5.134 69.319h-42.646v-40h-16v96h16v-40h32v40h16v-40h3.26a8 8 0 0 0 7.978-8.591zm-35.238-231.409a16.019 16.019 0 0 1 -16 16v-32a16.019 16.019 0 0 1 16 16zm-72-160a8 8 0 0 1 16 0v32h-16zm-64-16a8 8 0 0 1 16 0v32h-16zm-64 16a8 8 0 0 1 16 0v32h-16zm-16 37.125v2.875a8 8 0 0 0 8 8h32a8 8 0 0 0 8-8v-40a23.959 23.959 0 0 0 -.378-4.212 79.075 79.075 0 0 1 16.378-3.388v31.6a8 8 0 0 0 8 8h32a8 8 0 0 0 8-8v-31.607a79.094 79.094 0 0 1 16.377 3.4 24 24 0 0 0 -.377 4.207v40a8 8 0 0 0 8 8h32a8 8 0 0 0 8-8v-2.875a79.551 79.551 0 0 1 7.6 26.875h-191.2a79.557 79.557 0 0 1 7.6-26.875zm-24 42.875h224v16h-224zm-16 80a16.019 16.019 0 0 1 16-16v32a16.019 16.019 0 0 1 -16-16zm104.2 119.605c2.873.257 5.768.395 8.681.395h30.244c2.913 0 5.808-.138 8.681-.395l-23.806 28.035zm-24.2-3.779 28.249 33.274-28.249-4.038zm67.751 33.274 28.249-33.274v29.236zm-4.629-45.1h-30.244a80.879 80.879 0 0 1 -80.878-80.878v-71.122h192v71.122a80.879 80.879 0 0 1 -80.878 80.878z"/><path d="m280 400h16v16h-16z"/><path d="m280 432h16v16h-16z"/><path d="m280 464h16v16h-16z"/></g></svg>